<svg id="Layer_1" data-name="Layer 1" xmlns="http://www.w3.org/2000/svg" viewBox="0 0 512 512"><defs><style>.cls-1{fill:#00bfbe;}.cls-2{fill:#12cccc;}.cls-3{fill:#f2f2f2;}.cls-4{fill:#d9d8d7;}.cls-5{fill:#424242;}.cls-6{fill:#fff;}.cls-7{fill:#dadada;}.cls-8{fill:#372370;}.cls-9{fill:#02d8a7;}</style></defs><title>Artboard 1</title><circle class="cls-1" cx="256" cy="256" r="178.46"/><path class="cls-2" d="M105,351A178.41,178.41,0,0,0,407,351Z"/><polygon class="cls-3" points="293.76 345.39 218.2 345.39 227.79 298.67 284.16 298.67 293.76 345.39"/><polygon class="cls-4" points="293.76 345.39 284.16 298.67 227.79 298.67 274.5 345.39 293.76 345.39"/><rect class="cls-3" x="197.98" y="345.38" width="116.01" height="5.65"/><path class="cls-5" d="M118,106.46a7.08,7.08,0,0,0-7,7.06v178.1a7.07,7.07,0,0,0,7,7.05H393.93a7.08,7.08,0,0,0,7.06-7.05V113.52a7.09,7.09,0,0,0-7.06-7.06Z"/><rect class="cls-6" x="125.66" y="121.11" width="260.68" height="162.9"/><rect class="cls-7" x="208.44" y="249.18" width="162.86" height="3.24"/><rect class="cls-7" x="140.68" y="249.18" width="55.06" height="3.24"/><rect class="cls-7" x="140.68" y="259.22" width="230.62" height="3.24"/><rect class="cls-7" x="140.68" y="269.24" width="115.31" height="3.24"/><rect class="cls-8" x="140.69" y="132.66" width="164.66" height="20.04"/><rect class="cls-7" x="150.18" y="159.86" width="164.68" height="20.04"/><rect class="cls-5" x="140.69" y="187.08" width="164.67" height="20.04"/><rect class="cls-9" x="140.71" y="214.29" width="164.65" height="20.04"/><rect class="cls-7" x="340.21" y="135.37" width="16.77" height="3.57"/><rect class="cls-7" x="359.63" y="135.37" width="7.04" height="3.57"/><rect class="cls-7" x="340.21" y="163.99" width="26.47" height="3.57"/><rect class="cls-7" x="362.49" y="178.29" width="4.18" height="3.57"/><rect class="cls-7" x="340.21" y="178.29" width="20.05" height="3.57"/><rect class="cls-7" x="340.21" y="149.68" width="4.9" height="3.57"/><rect class="cls-7" x="348.5" y="149.68" width="7.46" height="3.57"/><rect class="cls-7" x="359.21" y="149.68" width="7.46" height="3.57"/><circle class="cls-5" cx="330.78" cy="137.15" r="4.49"/><circle class="cls-7" cx="330.78" cy="151.46" r="4.49"/><circle class="cls-8" cx="330.78" cy="165.76" r="4.49"/><circle class="cls-9" cx="330.78" cy="180.06" r="4.49"/></svg>