<svg id="Layer_1" data-name="Layer 1" xmlns="http://www.w3.org/2000/svg" viewBox="0 0 512 512"><defs><style>.cls-1{fill:#44efe6;}.cls-2{fill:#00bfbe;}.cls-3{fill:#d9d8d7;}.cls-4{fill:#f2f2f2;}.cls-5{fill:#004056;}.cls-6{fill:#21d8de;}.cls-7{fill:#424242;}.cls-8{fill:#fff;}.cls-9{fill:#12cccc;}</style></defs><title>Artboard 1</title><circle class="cls-1" cx="235.69" cy="256" r="178.46"/><path class="cls-2" d="M414.16,256A178.43,178.43,0,0,1,136.92,404.6c-1.21-.77-2.39-1.58-3.55-2.41q-3.73-2.58-7.31-5.39a178.22,178.22,0,0,1-40.2-43.89h47.51V185.26a25.84,25.84,0,0,1,25.85-25.82h77.51V141.12a25.84,25.84,0,0,1,25.85-25.85h82.86A178.06,178.06,0,0,1,414.16,256Z"/><path class="cls-3" d="M428.92,115.28a25.84,25.84,0,0,0-25.84,25.84v19.18h51.67V141.11A25.84,25.84,0,0,0,428.92,115.28Z"/><path class="cls-4" d="M262.58,115.28a25.84,25.84,0,0,0-25.84,25.84V248.18H377.25a25.84,25.84,0,0,0,25.84-25.83V141.11a25.84,25.84,0,0,1,25.84-25.84Z"/><path class="cls-5" d="M285.47,162.22l-18.84,23.27a29.94,29.94,0,0,1-4.43-42.1,29.18,29.18,0,0,1,23.26-11.1v29.93Z"/><path class="cls-3" d="M285.47,162.22,282.86,192a28.84,28.84,0,0,1-16.23-6.56Z"/><path class="cls-6" d="M285.47,162.22l26.68-13.59a29.93,29.93,0,0,1-13.09,40.26,28.75,28.75,0,0,1-16.2,3.15Z"/><path class="cls-7" d="M285.47,162.22V132.29a29,29,0,0,1,26.68,16.35Z"/><rect class="cls-3" x="353.75" y="135.41" width="19.34" height="4.12"/><rect class="cls-3" x="376.17" y="135.41" width="8.12" height="4.12"/><rect class="cls-3" x="353.75" y="168.42" width="30.53" height="4.12"/><rect class="cls-3" x="379.47" y="184.94" width="4.82" height="4.12"/><rect class="cls-3" x="353.75" y="184.94" width="23.13" height="4.12"/><rect class="cls-3" x="353.75" y="151.92" width="5.65" height="4.12"/><rect class="cls-3" x="363.32" y="151.92" width="8.6" height="4.12"/><rect class="cls-3" x="375.68" y="151.92" width="8.6" height="4.12"/><path class="cls-7" d="M348.06,137.47a5.18,5.18,0,1,1-5.18-5.18A5.18,5.18,0,0,1,348.06,137.47Z"/><path class="cls-3" d="M348.06,154a5.18,5.18,0,1,1-5.18-5.18A5.18,5.18,0,0,1,348.06,154Z"/><path class="cls-5" d="M348.06,170.48a5.18,5.18,0,1,1-5.18-5.18A5.18,5.18,0,0,1,348.06,170.48Z"/><path class="cls-6" d="M348.06,187a5.18,5.18,0,1,1-5.18-5.18A5.18,5.18,0,0,1,348.06,187Z"/><path class="cls-8" d="M325.58,159.43a25.84,25.84,0,0,0-25.84,25.84v193.5A25.83,25.83,0,0,1,273.9,404.6H133.39V185.27a25.84,25.84,0,0,1,25.84-25.84Z"/><rect class="cls-3" x="152.14" y="268.31" width="16.37" height="17.28"/><rect class="cls-3" x="180.26" y="239.09" width="16.38" height="46.48"/><rect class="cls-3" x="208.37" y="251.84" width="16.37" height="33.72"/><rect class="cls-3" x="236.48" y="216.22" width="16.37" height="69.34"/><rect class="cls-3" x="264.59" y="226.39" width="16.38" height="59.18"/><rect class="cls-5" x="152.14" y="281.5" width="16.37" height="4.07"/><rect class="cls-5" x="180.26" y="274.61" width="16.38" height="10.95"/><rect class="cls-5" x="208.37" y="277.64" width="16.37" height="7.94"/><rect class="cls-5" x="236.48" y="269.22" width="16.37" height="16.34"/><rect class="cls-5" x="264.59" y="271.63" width="16.38" height="13.94"/><rect class="cls-9" x="152.14" y="261.27" width="16.37" height="7.04"/><rect class="cls-9" x="180.26" y="217.21" width="16.38" height="21.89"/><rect class="cls-9" x="208.37" y="247.36" width="16.37" height="4.48"/><rect class="cls-9" x="236.48" y="205.81" width="16.37" height="10.4"/><rect class="cls-9" x="264.59" y="199.53" width="16.38" height="26.87"/><rect class="cls-7" x="152.14" y="293.39" width="128.84" height="6.4"/><rect class="cls-3" x="189.96" y="318.77" width="90.88" height="3.74"/><rect class="cls-3" x="152.14" y="318.77" width="30.72" height="3.74"/><rect class="cls-3" x="152.14" y="330.34" width="128.69" height="3.73"/><rect class="cls-3" x="152.14" y="341.88" width="64.34" height="3.73"/><path class="cls-3" d="M351.41,222.35V185.27a25.84,25.84,0,1,0-51.67,0v62.91h77.51A25.84,25.84,0,0,1,351.41,222.35Z"/><path class="cls-3" d="M133.39,378.77V404.6H107.55A25.83,25.83,0,0,0,133.39,378.77Z"/><path class="cls-3" d="M273.9,404.6H107.55a25.83,25.83,0,0,1-25.84-25.84V352.9H248.07v25.86A25.83,25.83,0,0,0,273.9,404.6Z"/></svg>