<svg id="Layer_1" data-name="Layer 1" xmlns="http://www.w3.org/2000/svg" viewBox="0 0 512 512"><defs><style>.cls-1{fill:#02d8a7;}.cls-2{fill:#fff;}.cls-3{fill:#424242;}.cls-4{fill:#44efe6;}.cls-5{fill:#372370;}.cls-6{fill:#dadada;}</style></defs><title>Artboard 1</title><circle class="cls-1" cx="256" cy="256" r="178.46"/><path class="cls-2" d="M260,134.08a1.39,1.39,0,0,1-2.78,0,1.39,1.39,0,0,1,2.78,0Z"/><path class="cls-2" d="M253.43,134.19a1.36,1.36,0,0,1-1.3,1.44,1.35,1.35,0,0,1-1.44-1.3,1.37,1.37,0,1,1,2.74-.13Z"/><path class="cls-2" d="M246.92,134.62a1.38,1.38,0,0,1-1.21,1.53,1.4,1.4,0,0,1-1.52-1.23,1.38,1.38,0,0,1,1.23-1.53A1.35,1.35,0,0,1,246.92,134.62Z"/><path class="cls-2" d="M240.45,135.4a1.36,1.36,0,0,1-1.14,1.57,1.39,1.39,0,0,1-1.59-1.15,1.4,1.4,0,0,1,1.16-1.59A1.38,1.38,0,0,1,240.45,135.4Z"/><path class="cls-2" d="M234,136.53a1.35,1.35,0,0,1-1.08,1.62,1.37,1.37,0,0,1-1.64-1.06,1.39,1.39,0,0,1,1.05-1.64A1.41,1.41,0,0,1,234,136.53Z"/><path class="cls-2" d="M227.65,138a1.38,1.38,0,0,1-1,1.71A1.39,1.39,0,0,1,226,137,1.38,1.38,0,0,1,227.65,138Z"/><path class="cls-2" d="M221.37,139.76a1.38,1.38,0,0,1-.87,1.75,1.39,1.39,0,0,1-.86-2.65A1.37,1.37,0,0,1,221.37,139.76Z"/><path class="cls-2" d="M215.22,141.87a1.39,1.39,0,1,1-1.8-.81A1.4,1.4,0,0,1,215.22,141.87Z"/><path class="cls-2" d="M209.15,144.29a1.39,1.39,0,0,1-.72,1.84,1.41,1.41,0,0,1-1.82-.72,1.39,1.39,0,0,1,.7-1.84A1.41,1.41,0,0,1,209.15,144.29Z"/><path class="cls-2" d="M203.23,147a1.37,1.37,0,0,1-.61,1.86,1.41,1.41,0,0,1-1.86-.6,1.38,1.38,0,0,1,.6-1.87A1.41,1.41,0,0,1,203.23,147Z"/><path class="cls-2" d="M197.45,150.09a1.36,1.36,0,0,1-.52,1.89,1.39,1.39,0,0,1-1.89-.49,1.37,1.37,0,0,1,.51-1.89A1.35,1.35,0,0,1,197.45,150.09Z"/><path class="cls-2" d="M191.86,153.43a1.39,1.39,0,0,1-.41,1.91,1.37,1.37,0,0,1-1.92-.4,1.39,1.39,0,0,1,2.33-1.5Z"/><path class="cls-2" d="M186.43,157.07a1.38,1.38,0,0,1-.32,1.93,1.39,1.39,0,0,1-1.93-.3,1.39,1.39,0,0,1,2.25-1.64Z"/><path class="cls-2" d="M181.22,161a1.35,1.35,0,0,1-.23,1.92,1.34,1.34,0,0,1-1.93-.2,1.37,1.37,0,0,1,.2-2A1.39,1.39,0,0,1,181.22,161Z"/><path class="cls-2" d="M176.19,165.17a1.39,1.39,0,0,1-.09,2,1.38,1.38,0,1,1-1.84-2.07A1.34,1.34,0,0,1,176.19,165.17Z"/><path class="cls-2" d="M171.43,169.62a1.35,1.35,0,0,1,0,1.93,1.38,1.38,0,1,1,0-1.93Z"/><path class="cls-2" d="M166.87,174.29a1.41,1.41,0,0,1,.12,2,1.44,1.44,0,0,1-2,.11,1.39,1.39,0,1,1,1.87-2.06Z"/><path class="cls-2" d="M162.59,179.21a1.42,1.42,0,0,1,.2,2,1.39,1.39,0,1,1-.2-2Z"/><path class="cls-2" d="M158.54,184.35a1.39,1.39,0,0,1-1.62,2.25,1.39,1.39,0,1,1,1.62-2.25Z"/><path class="cls-2" d="M154.79,189.67a1.39,1.39,0,1,1-1.9.43A1.36,1.36,0,0,1,154.79,189.67Z"/><path class="cls-2" d="M151.31,195.22a1.36,1.36,0,0,1,.51,1.88,1.39,1.39,0,1,1-2.4-1.39A1.35,1.35,0,0,1,151.31,195.22Z"/><path class="cls-2" d="M148.15,200.92a1.38,1.38,0,1,1-1.87.58A1.38,1.38,0,0,1,148.15,200.92Z"/><path class="cls-2" d="M145.25,206.76a1.39,1.39,0,1,1-1.79.72A1.33,1.33,0,0,1,145.25,206.76Z"/><path class="cls-2" d="M142.69,212.78a1.37,1.37,0,0,1,.81,1.77,1.39,1.39,0,0,1-1.79.81,1.37,1.37,0,0,1-.78-1.79A1.35,1.35,0,0,1,142.69,212.78Z"/><path class="cls-2" d="M140.45,218.88a1.39,1.39,0,1,1-.86,2.65,1.39,1.39,0,1,1,.86-2.65Z"/><path class="cls-2" d="M138.53,225.13a1.36,1.36,0,0,1,1,1.7,1.39,1.39,0,0,1-1.68,1,1.39,1.39,0,0,1,.72-2.69Z"/><path class="cls-2" d="M136.94,231.46a1.39,1.39,0,0,1-.59,2.72,1.39,1.39,0,1,1,.59-2.72Z"/><path class="cls-2" d="M135.69,237.86a1.4,1.4,0,0,1,1.14,1.6,1.39,1.39,0,0,1-2.74-.45A1.41,1.41,0,0,1,135.69,237.86Z"/><path class="cls-2" d="M134.74,244.33a1.38,1.38,0,0,1,1.24,1.52,1.34,1.34,0,0,1-1.5,1.23,1.42,1.42,0,0,1-1.26-1.52A1.4,1.4,0,0,1,134.74,244.33Z"/><path class="cls-2" d="M134.16,250.84a1.38,1.38,0,1,1-1.44,1.3A1.35,1.35,0,0,1,134.16,250.84Z"/><path class="cls-2" d="M133.93,257.35a1.38,1.38,0,0,1,0,2.76,1.38,1.38,0,1,1,0-2.76Z"/><path class="cls-2" d="M134,263.88a1.38,1.38,0,0,1,1.46,1.3,1.41,1.41,0,0,1-1.32,1.46,1.38,1.38,0,0,1-.14-2.76Z"/><path class="cls-2" d="M134.47,270.39a1.35,1.35,0,0,1,1.5,1.21,1.39,1.39,0,0,1-2.76.31A1.43,1.43,0,0,1,134.47,270.39Z"/><path class="cls-2" d="M135.23,276.86a1.39,1.39,0,1,1-1.15,1.59A1.39,1.39,0,0,1,135.23,276.86Z"/><path class="cls-2" d="M136.36,283.3a1.37,1.37,0,0,1,1.64,1.06,1.41,1.41,0,0,1-1.05,1.66,1.44,1.44,0,0,1-1.66-1.08A1.41,1.41,0,0,1,136.36,283.3Z"/><path class="cls-2" d="M137.82,289.66a1.38,1.38,0,0,1,.7,2.67,1.38,1.38,0,1,1-.7-2.67Z"/><path class="cls-2" d="M139.59,295.94a1.38,1.38,0,0,1,1.76.9,1.39,1.39,0,1,1-1.76-.9Z"/><path class="cls-2" d="M141.7,302.12a1.36,1.36,0,0,1,1.79.78,1.38,1.38,0,0,1-.81,1.79,1.36,1.36,0,0,1-1.77-.81A1.33,1.33,0,0,1,141.7,302.12Z"/><path class="cls-2" d="M144.13,308.16a1.4,1.4,0,1,1-.7,1.84A1.41,1.41,0,0,1,144.13,308.16Z"/><path class="cls-2" d="M146.87,314.09a1.43,1.43,0,0,1,1.89.61,1.39,1.39,0,0,1-.62,1.87,1.34,1.34,0,0,1-1.85-.61A1.38,1.38,0,0,1,146.87,314.09Z"/><path class="cls-2" d="M149.92,319.88a1.38,1.38,0,1,1,1.39,2.38,1.38,1.38,0,1,1-1.39-2.38Z"/><path class="cls-2" d="M153.29,325.47a1.38,1.38,0,0,1,1.5,2.31,1.38,1.38,0,0,1-1.5-2.31Z"/><path class="cls-2" d="M156.92,330.88a1.38,1.38,0,1,1-.31,1.93A1.37,1.37,0,0,1,156.92,330.88Z"/><path class="cls-2" d="M160.83,336.11a1.35,1.35,0,0,1,1.93.2,1.37,1.37,0,0,1-.18,1.93,1.38,1.38,0,1,1-1.76-2.13Z"/><path class="cls-2" d="M165,341.12a1.38,1.38,0,0,1,2,.09,1.38,1.38,0,1,1-2-.09Z"/><path class="cls-2" d="M169.45,345.9a1.38,1.38,0,0,1,2,0,1.35,1.35,0,0,1,0,2,1.38,1.38,0,0,1-2-2Z"/><path class="cls-2" d="M174.14,350.46a1.36,1.36,0,0,1,2-.11,1.38,1.38,0,1,1-1.87,2A1.36,1.36,0,0,1,174.14,350.46Z"/><path class="cls-2" d="M179.07,354.75a1.34,1.34,0,0,1,1.93-.2,1.38,1.38,0,1,1-1.93.2Z"/><path class="cls-2" d="M184.18,358.76a1.39,1.39,0,1,1,.32,1.93A1.38,1.38,0,0,1,184.18,358.76Z"/><path class="cls-2" d="M189.53,362.54a1.37,1.37,0,1,1,2.31,1.48,1.39,1.39,0,0,1-1.91.43A1.35,1.35,0,0,1,189.53,362.54Z"/><path class="cls-2" d="M195,366a1.39,1.39,0,0,1,2.4,1.39,1.4,1.4,0,0,1-1.91.5A1.39,1.39,0,0,1,195,366Z"/><path class="cls-2" d="M200.76,369.19a1.39,1.39,0,0,1,1.86-.63,1.41,1.41,0,0,1,.61,1.89,1.38,1.38,0,0,1-1.87.59A1.33,1.33,0,0,1,200.76,369.19Z"/><path class="cls-2" d="M206.62,372.06a1.36,1.36,0,0,1,1.82-.71,1.41,1.41,0,0,1,.72,1.84,1.39,1.39,0,0,1-1.84.7A1.37,1.37,0,0,1,206.62,372.06Z"/><path class="cls-2" d="M212.61,374.62a1.4,1.4,0,0,1,1.79-.81,1.39,1.39,0,1,1-1.79.81Z"/><path class="cls-2" d="M218.74,376.86a1.4,1.4,0,0,1,1.73-.89,1.38,1.38,0,0,1,.89,1.75,1.38,1.38,0,1,1-2.62-.86Z"/><path class="cls-2" d="M225,378.8a1.38,1.38,0,1,1,2.67.72,1.41,1.41,0,0,1-1.71,1A1.38,1.38,0,0,1,225,378.8Z"/><path class="cls-2" d="M231.31,380.37A1.38,1.38,0,1,1,234,381a1.37,1.37,0,0,1-1.64,1.08A1.41,1.41,0,0,1,231.31,380.37Z"/><path class="cls-2" d="M237.72,381.65a1.35,1.35,0,0,1,1.57-1.14,1.37,1.37,0,0,1,1.16,1.57,1.42,1.42,0,0,1-1.59,1.16A1.4,1.4,0,0,1,237.72,381.65Z"/><path class="cls-2" d="M244.18,382.57a1.37,1.37,0,0,1,1.5-1.24,1.39,1.39,0,0,1,1.24,1.53,1.42,1.42,0,0,1-1.53,1.24A1.37,1.37,0,0,1,244.18,382.57Z"/><path class="cls-2" d="M250.67,383.15a1.38,1.38,0,0,1,1.46-1.3,1.37,1.37,0,0,1,1.3,1.44,1.38,1.38,0,1,1-2.76-.14Z"/><path class="cls-2" d="M257.2,383.4a1.38,1.38,0,1,1,1.39,1.37A1.38,1.38,0,0,1,257.2,383.4Z"/><path class="cls-2" d="M263.72,383.28a1.35,1.35,0,0,1,1.3-1.44,1.38,1.38,0,1,1-1.3,1.44Z"/><path class="cls-2" d="M270.23,382.86a1.39,1.39,0,1,1,2.76-.29,1.4,1.4,0,0,1-1.24,1.53A1.38,1.38,0,0,1,270.23,382.86Z"/><path class="cls-2" d="M276.71,382.08a1.36,1.36,0,0,1,1.14-1.57,1.34,1.34,0,0,1,1.58,1.14,1.38,1.38,0,1,1-2.72.43Z"/><path class="cls-2" d="M283.16,381a1.35,1.35,0,0,1,1-1.64,1.39,1.39,0,1,1,.58,2.72A1.36,1.36,0,0,1,283.16,381Z"/><path class="cls-2" d="M289.51,379.52a1.37,1.37,0,0,1,1-1.71,1.39,1.39,0,1,1,.72,2.68A1.38,1.38,0,0,1,289.51,379.52Z"/><path class="cls-2" d="M295.77,377.72a1.4,1.4,0,0,1,.9-1.75,1.39,1.39,0,1,1-.9,1.75Z"/><path class="cls-2" d="M302,375.61a1.37,1.37,0,1,1,2.56-1,1.37,1.37,0,1,1-2.56,1Z"/><path class="cls-2" d="M308,373.18a1.37,1.37,0,0,1,.68-1.84,1.4,1.4,0,0,1,1.84.71,1.36,1.36,0,0,1-.72,1.82A1.34,1.34,0,0,1,308,373.18Z"/><path class="cls-2" d="M313.94,370.44a1.38,1.38,0,0,1,.61-1.86,1.34,1.34,0,0,1,1.84.61,1.38,1.38,0,0,1-.58,1.86A1.4,1.4,0,0,1,313.94,370.44Z"/><path class="cls-2" d="M319.71,367.39a1.38,1.38,0,0,1,.49-1.89,1.36,1.36,0,0,1,1.89.49,1.38,1.38,0,1,1-2.38,1.39Z"/><path class="cls-2" d="M325.32,364a1.34,1.34,0,0,1,.4-1.89,1.38,1.38,0,0,1,1.92.4,1.41,1.41,0,0,1-.41,1.91A1.36,1.36,0,0,1,325.32,364Z"/><path class="cls-2" d="M330.74,360.38a1.36,1.36,0,0,1,.29-1.93,1.39,1.39,0,0,1,1.64,2.24A1.36,1.36,0,0,1,330.74,360.38Z"/><path class="cls-2" d="M336,356.48a1.37,1.37,0,1,1,2.13-1.73,1.42,1.42,0,0,1-.2,2A1.37,1.37,0,0,1,336,356.48Z"/><path class="cls-2" d="M341,352.3a1.38,1.38,0,0,1,.09-2,1.36,1.36,0,0,1,2,.11,1.4,1.4,0,0,1-.09,2A1.37,1.37,0,0,1,341,352.3Z"/><path class="cls-2" d="M345.76,347.85a1.37,1.37,0,1,1,2,0A1.38,1.38,0,0,1,345.76,347.85Z"/><path class="cls-2" d="M350.29,343.19a1.36,1.36,0,0,1-.11-2,1.39,1.39,0,1,1,.11,2Z"/><path class="cls-2" d="M354.6,338.24a1.35,1.35,0,0,1-.23-1.93,1.39,1.39,0,0,1,2.16,1.75A1.36,1.36,0,0,1,354.6,338.24Z"/><path class="cls-2" d="M358.62,333.12a1.38,1.38,0,1,1,1.93-.31A1.37,1.37,0,0,1,358.62,333.12Z"/><path class="cls-2" d="M362.38,327.78a1.38,1.38,0,1,1,1.49-2.31,1.38,1.38,0,0,1-1.49,2.31Z"/><path class="cls-2" d="M365.85,322.26a1.37,1.37,0,1,1,1.89-.49A1.37,1.37,0,0,1,365.85,322.26Z"/><path class="cls-2" d="M369,316.56a1.39,1.39,0,0,1,1.26-2.47,1.43,1.43,0,0,1,.61,1.89A1.38,1.38,0,0,1,369,316.56Z"/><path class="cls-2" d="M371.89,310.72a1.4,1.4,0,0,1-.7-1.84,1.38,1.38,0,0,1,1.82-.69,1.36,1.36,0,0,1,.72,1.82A1.4,1.4,0,0,1,371.89,310.72Z"/><path class="cls-2" d="M374.46,304.7a1.36,1.36,0,0,1-.79-1.79,1.39,1.39,0,0,1,2.59,1A1.4,1.4,0,0,1,374.46,304.7Z"/><path class="cls-2" d="M376.7,298.57a1.38,1.38,0,0,1,.85-2.63,1.39,1.39,0,0,1,.9,1.75A1.37,1.37,0,0,1,376.7,298.57Z"/><path class="cls-2" d="M378.63,292.33a1.39,1.39,0,0,1-1-1.69,1.39,1.39,0,1,1,2.69.72A1.38,1.38,0,0,1,378.63,292.33Z"/><path class="cls-2" d="M380.22,286a1.39,1.39,0,0,1-1.05-1.66,1.38,1.38,0,1,1,2.69.58A1.39,1.39,0,0,1,380.22,286Z"/><path class="cls-2" d="M381.5,279.6a1.38,1.38,0,1,1,.4-2.72,1.39,1.39,0,0,1,1.17,1.57A1.38,1.38,0,0,1,381.5,279.6Z"/><path class="cls-2" d="M382.4,273.13a1.34,1.34,0,0,1-1.22-1.51,1.37,1.37,0,0,1,1.5-1.24,1.39,1.39,0,0,1,1.24,1.53A1.36,1.36,0,0,1,382.4,273.13Z"/><path class="cls-2" d="M383,266.64a1.38,1.38,0,0,1,.16-2.76,1.38,1.38,0,1,1-.16,2.76Z"/><path class="cls-2" d="M383.25,260.11a1.37,1.37,0,1,1,1.37-1.37A1.37,1.37,0,0,1,383.25,260.11Z"/><path class="cls-2" d="M383.14,253.59a1.38,1.38,0,1,1-.16-2.76,1.38,1.38,0,1,1,.16,2.76Z"/><path class="cls-2" d="M382.69,247.08a1.36,1.36,0,0,1-1.5-1.23,1.34,1.34,0,0,1,1.22-1.5,1.37,1.37,0,0,1,1.52,1.22A1.38,1.38,0,0,1,382.69,247.08Z"/><path class="cls-2" d="M381.9,240.59a1.37,1.37,0,1,1-.4-2.72,1.39,1.39,0,0,1,1.57,1.14A1.37,1.37,0,0,1,381.9,240.59Z"/><path class="cls-2" d="M380.8,234.15a1.34,1.34,0,0,1-1.63-1,1.41,1.41,0,0,1,1.05-1.66,1.38,1.38,0,0,1,1.63,1.08A1.32,1.32,0,0,1,380.8,234.15Z"/><path class="cls-2" d="M379.35,227.8a1.37,1.37,0,1,1,1-1.69A1.37,1.37,0,0,1,379.35,227.8Z"/><path class="cls-2" d="M377.55,221.54a1.38,1.38,0,0,1-1.73-.9,1.38,1.38,0,0,1,2.62-.85A1.38,1.38,0,0,1,377.55,221.54Z"/><path class="cls-2" d="M375.44,215.34a1.35,1.35,0,0,1-1.77-.77,1.39,1.39,0,0,1,.79-1.79,1.4,1.4,0,0,1,1.79.79A1.37,1.37,0,0,1,375.44,215.34Z"/><path class="cls-2" d="M373,209.29a1.38,1.38,0,1,1,.72-1.81A1.36,1.36,0,0,1,373,209.29Z"/><path class="cls-2" d="M370.27,203.37a1.36,1.36,0,0,1-1.86-.61,1.38,1.38,0,0,1,.6-1.84,1.41,1.41,0,0,1,1.9.58A1.39,1.39,0,0,1,370.27,203.37Z"/><path class="cls-2" d="M367.22,197.6a1.35,1.35,0,0,1-1.89-.5,1.39,1.39,0,1,1,1.89.5Z"/><path class="cls-2" d="M363.87,192a1.35,1.35,0,0,1-1.9-.4,1.39,1.39,0,0,1,2.34-1.5A1.38,1.38,0,0,1,363.87,192Z"/><path class="cls-2" d="M360.24,186.58a1.36,1.36,0,0,1-1.93-.29,1.38,1.38,0,1,1,2.24-1.61A1.34,1.34,0,0,1,360.24,186.58Z"/><path class="cls-2" d="M356.31,181.34a1.37,1.37,0,0,1-1.94-.18,1.39,1.39,0,0,1,2.16-1.75A1.33,1.33,0,0,1,356.31,181.34Z"/><path class="cls-2" d="M352.14,176.36a1.4,1.4,0,0,1-2-.09,1.39,1.39,0,1,1,2.06-1.86A1.36,1.36,0,0,1,352.14,176.36Z"/><path class="cls-2" d="M347.71,171.55a1.36,1.36,0,0,1-2,0,1.38,1.38,0,1,1,2-2A1.35,1.35,0,0,1,347.71,171.55Z"/><path class="cls-2" d="M343,167a1.37,1.37,0,0,1-2,.11,1.39,1.39,0,0,1-.09-2,1.37,1.37,0,0,1,2-.11A1.39,1.39,0,0,1,343,167Z"/><path class="cls-2" d="M338.1,162.73a1.37,1.37,0,1,1-.2-2A1.37,1.37,0,0,1,338.1,162.73Z"/><path class="cls-2" d="M333,158.71a1.37,1.37,0,1,1-.29-1.93A1.35,1.35,0,0,1,333,158.71Z"/><path class="cls-2" d="M327.64,154.94a1.37,1.37,0,0,1-1.92.42,1.39,1.39,0,0,1-.4-1.93,1.38,1.38,0,0,1,2.32,1.5Z"/><path class="cls-2" d="M322.09,151.48a1.36,1.36,0,0,1-1.89.49,1.38,1.38,0,0,1-.49-1.89,1.38,1.38,0,0,1,2.38,1.4Z"/><path class="cls-2" d="M316.39,148.29a1.36,1.36,0,0,1-1.84.6,1.39,1.39,0,1,1,1.26-2.47A1.37,1.37,0,0,1,316.39,148.29Z"/><path class="cls-2" d="M310.55,145.42a1.38,1.38,0,1,1-2.52-1.12,1.38,1.38,0,0,1,2.52,1.12Z"/><path class="cls-2" d="M304.53,142.85a1.37,1.37,0,1,1-.78-1.79A1.37,1.37,0,0,1,304.53,142.85Z"/><path class="cls-2" d="M298.42,140.61a1.41,1.41,0,0,1-1.75.9,1.43,1.43,0,0,1-.9-1.75,1.39,1.39,0,1,1,2.65.85Z"/><path class="cls-2" d="M292.19,138.68a1.39,1.39,0,1,1-1-1.71A1.4,1.4,0,0,1,292.19,138.68Z"/><path class="cls-2" d="M285.86,137.09a1.41,1.41,0,0,1-1.64,1.08,1.39,1.39,0,0,1,.58-2.72A1.39,1.39,0,0,1,285.86,137.09Z"/><path class="cls-2" d="M279.43,135.83a1.37,1.37,0,1,1-2.7-.42,1.37,1.37,0,1,1,2.7.42Z"/><path class="cls-2" d="M273,134.91a1.38,1.38,0,1,1-2.73-.3,1.34,1.34,0,0,1,1.5-1.23A1.4,1.4,0,0,1,273,134.91Z"/><path class="cls-2" d="M266.48,134.32a1.35,1.35,0,0,1-1.44,1.3,1.37,1.37,0,0,1-1.32-1.44,1.42,1.42,0,0,1,1.48-1.33A1.35,1.35,0,0,1,266.48,134.32Z"/><path class="cls-3" d="M194.87,256a63.74,63.74,0,0,1,40.91-59.52l-7-18.14c-1,.38-3.05,1.23-4,1.66a83.11,83.11,0,0,0-42.12,109.71l17.67-7.86A63.33,63.33,0,0,1,194.87,256Z"/><path class="cls-4" d="M200.35,281.82l-17.67,7.86c10.42,23.4,28.41,39,53,46.08L241,317.23A63.8,63.8,0,0,1,200.35,281.82Z"/><path class="cls-2" d="M310.82,292.44A63.83,63.83,0,0,1,241,317.23l-5.32,18.53c34.85,10,70.19-2.52,91-32.22Z"/><path class="cls-5" d="M258.59,172.79v19.47a63.71,63.71,0,0,1,52.23,100.18l15.85,11.1c10.4-14.85,15-29.53,15-47.65A83.1,83.1,0,0,0,258.59,172.79Z"/><path class="cls-6" d="M258.59,192.26h0V172.79a79.44,79.44,0,0,0-29.77,5.52l7,18.14A63.62,63.62,0,0,1,258.59,192.26Z"/><circle class="cls-6" cx="236.38" cy="136.05" r="18.01"/><path class="cls-5" d="M385.57,198.18a18,18,0,1,1-18-18A18,18,0,0,1,385.57,198.18Z"/><circle class="cls-2" cx="301.14" cy="375.95" r="18.01"/><path class="cls-4" d="M193.48,351.43a18,18,0,1,1-18-18A18,18,0,0,1,193.48,351.43Z"/><path class="cls-3" d="M162.45,208.55a18,18,0,1,1-18-18A18,18,0,0,1,162.45,208.55Z"/></svg>