<svg id="Layer_1" data-name="Layer 1" xmlns="http://www.w3.org/2000/svg" viewBox="0 0 512 512"><defs><style>.cls-1{fill:#02d8a7;}.cls-2{fill:#fff;}.cls-3{fill:#004056;}.cls-4{fill:#f2f2f2;}.cls-5{fill:#424242;}</style></defs><title>Artboard 1</title><circle class="cls-1" cx="254.03" cy="256" r="178.46"/><rect class="cls-2" x="151.04" y="319.29" width="36.41" height="14.84"/><rect class="cls-2" x="198.99" y="289.62" width="36.41" height="44.5"/><rect class="cls-2" x="246.92" y="259.96" width="36.41" height="74.17"/><rect class="cls-2" x="294.87" y="230.3" width="36.41" height="103.83"/><rect class="cls-2" x="342.82" y="200.62" width="36.41" height="133.51"/><path class="cls-2" d="M104.92,325.69l-.29-1.79c3.94-.64,7.9-1.44,11.79-2.4l.44,1.77C112.92,324.23,108.91,325,104.92,325.69Zm23.65-5.82-.57-1.73c3.74-1.25,7.54-2.67,11.29-4.23l.7,1.68C136.19,317.18,132.35,318.62,128.56,319.87Zm22.49-9.35-.81-1.63c3.5-1.75,7.07-3.67,10.62-5.72l.91,1.58C158.19,306.83,154.59,308.77,151.06,310.53Zm21.09-12.12-1-1.53c3.26-2.11,6.62-4.4,10-6.81l1.06,1.48C178.81,294,175.42,296.28,172.15,298.4ZM192,284.31l-1.11-1.44c3-2.34,6.24-4.87,9.48-7.51l1.15,1.41C198.25,279.42,195,282,192,284.31ZM210.84,269l-1.18-1.39c2.84-2.41,5.85-5,9.18-7.9l1.19,1.37C216.69,264,213.68,266.6,210.84,269Zm18.32-15.93L228,251.71l9.1-8,1.2,1.37Zm18.21-16-1.19-1.38q4.59-4,9.22-7.93l1.18,1.39Q251.95,233,247.37,237Zm18.53-15.67-1.15-1.41c3.27-2.66,6.48-5.2,9.55-7.56l1.11,1.44C272.36,216.18,269.16,218.71,265.9,221.36Zm19.24-14.75-1.06-1.48c3.38-2.41,6.77-4.73,10.06-6.88l1,1.52C291.86,201.91,288.5,204.21,285.14,206.61Zm20.27-13.2-.92-1.57c3.56-2.08,7.15-4,10.68-5.84l.83,1.62C312.51,189.4,308.95,191.35,305.41,193.41ZM326.9,182.5l-.72-1.67c3.76-1.62,7.58-3.11,11.35-4.44l.6,1.72C334.4,179.42,330.62,180.89,326.9,182.5Z"/><polygon class="cls-3" points="333.41 141.94 337.51 177.54 436.44 115.83 333.41 141.94"/><polygon class="cls-4" points="343.01 148.39 378.08 171.98 436.44 115.83 343.01 148.39"/><polygon class="cls-4" points="312.04 127.57 333.41 141.94 436.44 115.83 312.04 127.57"/><polygon class="cls-5" points="337.51 177.54 343.01 148.39 362.86 161.73 337.51 177.54"/></svg>