<?xml version="1.0" encoding="utf-8"?>
<!-- Generator: Adobe Illustrator 22.1.0, SVG Export Plug-In . SVG Version: 6.00 Build 0)  -->
<svg version="1.1" id="Layer_1" xmlns="http://www.w3.org/2000/svg" xmlns:xlink="http://www.w3.org/1999/xlink" x="0px" y="0px"
	 viewBox="0 0 1019 512" style="enable-background:new 0 0 1019 512;" xml:space="preserve">
<style type="text/css">
	.st0{fill:#242D3C;}
	.st1{fill:#21D8DE;}
	.st2{fill:#FFFFFF;}
	.st3{fill:#D9D8D7;}
</style>
<g>
	<polygon class="st0" points="845.3,10.2 697.2,10.2 697.2,65.2 845.3,65.2 845.3,65.2 	"/>
	<rect x="545.6" class="st0" width="148.1" height="8.3"/>
	<polygon class="st0" points="845.3,67.1 697.2,67.1 697.2,122 845.3,122 845.3,122 	"/>
	<polygon class="st0" points="845.3,180.8 697.2,180.8 697.2,235.8 845.3,235.8 845.3,235.8 	"/>
	<rect x="697.2" y="123.9" class="st0" width="148.1" height="55"/>
	<polygon class="st0" points="697.2,463.2 845.3,463.2 845.3,463.2 845.3,408.2 697.2,408.2 	"/>
	<rect x="697.2" class="st0" width="148.1" height="8.3"/>
	<polygon class="st0" points="845.3,351.4 697.2,351.4 697.2,406.4 845.3,406.4 845.3,406.4 	"/>
	<polygon class="st0" points="845.3,294.5 697.2,294.5 697.2,349.5 845.3,349.5 845.3,349.5 	"/>
	<rect x="393.3" class="st0" width="148.8" height="8.3"/>
	<path class="st0" d="M693.7,10.2h-97.2h-50.9c0,0,0,55,0,55h148.1V10.2z"/>
	<polygon class="st0" points="693.7,67.1 635.3,67.1 635.3,67.1 545.6,67.1 545.6,122 693.7,122 	"/>
	<polygon class="st0" points="542.1,408.2 393.3,408.2 393.3,463.2 425.7,463.2 425.7,463.2 542.1,463.2 	"/>
	<path class="st0" d="M693.7,123.9H545.6c0,0.1,0,55,0,55h148.1V123.9z"/>
	<path class="st0" d="M693.7,294.5H545.6c0,0,0,55,0,55h146.6c0,0,0,0,0,0h1.5V294.5z"/>
	<rect x="545.6" y="351.4" class="st0" width="148.1" height="55"/>
	<polygon class="st0" points="542.1,351.4 393.3,351.4 393.3,406.4 407.1,406.4 407.1,406.3 542.1,406.3 	"/>
	<polygon class="st0" points="545.6,408.2 545.6,463.2 693.7,463.2 693.7,408.2 681,408.2 681,408.2 	"/>
	<polygon class="st0" points="693.7,237.7 545.6,237.7 545.6,292.6 693.7,292.6 	"/>
	<path class="st0" d="M693.7,180.8H545.6c0,0,0,55,0,55h146.3c0,0,0,0,0,0h1.7V180.8z"/>
	<polygon class="st0" points="848.8,292.6 997.9,292.6 997.9,292.6 998.6,292.6 998.6,237.7 848.8,237.7 	"/>
	<polygon class="st0" points="848.8,349.5 994.5,349.5 994.5,349.5 998.6,349.5 998.6,294.5 848.8,294.5 	"/>
	<rect x="848.8" y="351.4" class="st0" width="149.7" height="55"/>
	<polygon class="st0" points="897.3,8.3 998.6,8.3 998.6,0 848.8,0 848.8,8.3 	"/>
	<polygon class="st0" points="848.8,235.8 994.2,235.8 994.2,235.8 998.6,235.8 998.6,180.8 848.8,180.8 	"/>
	<rect x="1000.5" class="st0" width="18.5" height="8.3"/>
	<polygon class="st0" points="848.8,122 998.6,122 998.6,67.1 937.6,67.1 937.6,67.1 848.8,67.1 	"/>
	<polygon class="st0" points="848.8,178.9 983.3,178.9 983.3,178.9 998.6,178.9 998.6,123.9 848.8,123.9 	"/>
	<polygon class="st0" points="998.6,10.2 898.8,10.2 848.8,10.2 848.8,65.2 936.5,65.2 998.6,65.2 	"/>
	<polygon class="st0" points="848.8,463.2 998.6,463.2 998.6,408.2 983.3,408.2 983.3,408.2 848.8,408.2 	"/>
	<rect x="1000.5" y="67.1" class="st0" width="18.5" height="55"/>
	<rect x="1000.5" y="408.2" class="st0" width="18.5" height="55"/>
	<rect x="1000.5" y="294.5" class="st0" width="18.5" height="55"/>
	<rect x="1000.5" y="465.1" class="st0" width="18.5" height="46.9"/>
	<rect x="1000.5" y="351.4" class="st0" width="18.5" height="55"/>
	<rect x="1000.5" y="123.9" class="st0" width="18.5" height="55"/>
	<rect x="1000.5" y="237.7" class="st0" width="18.5" height="55"/>
	<rect x="1000.5" y="10.2" class="st0" width="18.5" height="55"/>
	<rect x="1000.5" y="180.8" class="st0" width="18.5" height="55"/>
	<polygon class="st0" points="845.3,237.7 697.2,237.7 697.2,292.6 845.3,292.6 845.3,292.6 	"/>
	<rect y="10.2" class="st0" width="88.1" height="55"/>
	<rect y="123.9" class="st0" width="88.1" height="55"/>
	<rect y="67.1" class="st0" width="88.1" height="55"/>
	<rect y="180.8" class="st0" width="88.1" height="55"/>
	<rect y="237.7" class="st0" width="88.1" height="55"/>
	<rect y="294.5" class="st0" width="88.1" height="55"/>
	<polygon class="st0" points="238.8,123.9 90,123.9 90,178.9 102.7,178.9 102.7,178.9 238.8,178.9 	"/>
	<rect class="st0" width="88.1" height="8.3"/>
	<polygon class="st0" points="238.8,10.2 90,10.2 90,65.2 149.5,65.2 149.5,65.2 238.8,65.2 	"/>
	<polygon class="st0" points="238.8,0 90,0 90,8.3 188.7,8.3 238.8,8.3 	"/>
	<rect x="241.6" y="465.1" class="st0" width="148.8" height="46.9"/>
	<rect x="697.2" y="465.1" class="st0" width="148.1" height="46.9"/>
	<rect x="545.6" y="465.1" class="st0" width="148.1" height="46.9"/>
	<rect x="393.3" y="465.1" class="st0" width="148.8" height="46.9"/>
	<rect x="848.8" y="465.1" class="st0" width="149.7" height="46.9"/>
	<rect y="351.4" class="st0" width="88.1" height="55"/>
	<rect y="465.1" class="st0" width="88.1" height="46.9"/>
	<rect y="408.2" class="st0" width="88.1" height="55"/>
	<polygon class="st0" points="238.8,180.8 90,180.8 90,235.8 91.8,235.8 91.8,235.8 238.8,235.8 	"/>
	<rect x="90" y="465.1" class="st0" width="148.8" height="46.9"/>
	<rect x="241.6" y="408.2" class="st0" width="148.8" height="55"/>
	<rect x="241.6" y="351.4" class="st0" width="148.8" height="55"/>
	<rect x="241.6" y="294.5" class="st0" width="148.8" height="55"/>
	<polygon class="st0" points="542.1,10.2 393.3,10.2 393.3,65.2 454.4,65.2 454.4,65.2 542.1,65.2 	"/>
	<polygon class="st0" points="542.1,294.5 393.3,294.5 393.3,349.5 396.4,349.5 396.4,349.5 542.1,349.5 	"/>
	<rect x="241.6" class="st0" width="148.8" height="8.3"/>
	<polygon class="st0" points="542.1,180.8 393.3,180.8 393.3,235.8 396.7,235.8 396.7,235.8 542.1,235.8 	"/>
	<rect x="393.3" y="237.7" class="st0" width="148.8" height="55"/>
	<polygon class="st0" points="542.1,67.1 393.3,67.1 393.3,122 426.5,122 426.5,122 542.1,122 	"/>
	<polygon class="st0" points="542.1,123.9 393.3,123.9 393.3,178.9 407.6,178.9 407.6,178.9 542.1,178.9 	"/>
	<rect x="241.6" y="10.2" class="st0" width="148.8" height="55"/>
	<polygon class="st0" points="121.6,122 238.8,122 238.8,67.1 90,67.1 90,122 121.6,122 	"/>
	<polygon class="st0" points="238.8,408.2 90,408.2 90,463.2 120.8,463.2 120.8,463.2 238.8,463.2 	"/>
	<rect x="90" y="237.7" class="st0" width="148.8" height="55"/>
	<polygon class="st0" points="238.8,351.4 90,351.4 90,406.4 102.2,406.4 102.2,406.3 238.8,406.3 	"/>
	<rect x="241.6" y="180.8" class="st0" width="148.8" height="55"/>
	<polygon class="st0" points="238.8,294.5 90,294.5 90,349.5 91.5,349.5 91.5,349.5 238.8,349.5 	"/>
	<rect x="241.6" y="237.7" class="st0" width="148.8" height="55"/>
	<rect x="241.6" y="123.9" class="st0" width="148.8" height="55"/>
	<rect x="241.6" y="67.1" class="st0" width="148.8" height="55"/>
</g>
<title>Artboard 1</title>
<g>
	<rect x="-9.4" y="359.1" class="st1" width="39.3" height="43.8"/>
	<rect x="8.3" y="334.3" class="st1" width="3.9" height="68.7"/>
	<rect x="44.6" y="322.5" class="st1" width="39.2" height="36.3"/>
	<rect x="62.2" y="315.6" class="st1" width="3.9" height="61.2"/>
</g>
<g>
	<rect x="98.6" y="371.6" class="st2" width="39.3" height="23.6"/>
	<rect x="116.2" y="346.7" class="st2" width="3.9" height="92.9"/>
	<rect x="152.5" y="384" class="st2" width="39.3" height="48.4"/>
	<rect x="170.2" y="376.8" class="st2" width="3.9" height="66"/>
	<rect x="206.5" y="388.6" class="st2" width="39.3" height="7.2"/>
	<rect x="224.2" y="384" class="st2" width="3.9" height="19.3"/>
	<rect x="260.5" y="396.4" class="st2" width="39.3" height="109.6"/>
	<rect x="278.1" y="388.6" class="st2" width="3.9" height="184.2"/>
	<rect x="314.4" y="499.8" class="st2" width="39.3" height="16.7"/>
	<rect x="332.1" y="495.2" class="st2" width="3.9" height="65.7"/>
</g>
<g>
	<rect x="368.4" y="479.4" class="st1" width="39.3" height="46.6"/>
	<rect x="386.1" y="454.5" class="st1" width="3.9" height="86.5"/>
	<rect x="422.4" y="297.6" class="st1" width="39.3" height="210.7"/>
	<rect x="440.1" y="242.8" class="st1" width="3.9" height="266.7"/>
	<rect x="476.4" y="270.2" class="st1" width="39.3" height="106"/>
	<rect x="494.1" y="258.1" class="st1" width="3.9" height="136.1"/>
</g>
<g>
	<rect x="530.4" y="282.9" class="st2" width="39.3" height="53.6"/>
	<rect x="548" y="282.9" class="st2" width="3.9" height="98.2"/>
	<rect x="584.3" y="297.6" class="st2" width="39.3" height="68.7"/>
	<rect x="602" y="291.1" class="st2" width="3.9" height="85.1"/>
</g>
<g>
	<rect x="638.3" y="219.1" class="st1" width="39.3" height="120.4"/>
	<rect x="656" y="194.3" class="st1" width="3.9" height="162.3"/>
	<rect x="692.3" y="191" class="st1" width="39.3" height="44.8"/>
	<rect x="709.9" y="166.1" class="st1" width="3.9" height="114.2"/>
	<rect x="746.3" y="184.8" class="st1" width="39.3" height="24.5"/>
	<rect x="763.9" y="174" class="st1" width="3.9" height="42.9"/>
	<rect x="800.2" y="137.3" class="st1" width="39.3" height="88.3"/>
	<rect x="817.9" y="98.4" class="st1" width="3.9" height="140.3"/>
</g>
<g>
	<rect x="854.2" y="162.9" class="st2" width="39.3" height="34"/>
	<rect x="871.9" y="147.2" class="st2" width="3.9" height="94.2"/>
	<rect x="908.2" y="233.8" class="st2" width="39.3" height="16.7"/>
	<rect x="925.8" y="227.6" class="st2" width="3.9" height="37"/>
</g>
<g>
	<rect x="962.2" y="216.2" class="st1" width="39.2" height="88.3"/>
	<rect x="979.8" y="209.3" class="st1" width="3.9" height="108.9"/>
	<rect x="1016.1" y="150.4" class="st1" width="39.3" height="84.4"/>
	<rect x="1033.8" y="133.1" class="st1" width="3.9" height="146.2"/>
</g>
<path class="st3" d="M339.1,511.8c-1.2-0.3-2.3-0.6-3.5-0.9c-6-1.9-11.2-4.6-16.1-8.3l1.7-2.3c4.6,3.5,9.6,6.1,15.2,7.8
	c1.1,0.3,2.2,0.6,3.3,0.9L339.1,511.8z M360.8,511.6l-0.6-2.8c6.5-1.4,13.2-3.9,19.4-7.4l1.4,2.5
	C374.5,507.5,367.5,510.1,360.8,511.6z M398.1,490.8l-2-2c4.8-5,8.9-10.4,12.3-16.7l2.5,1.4C407.3,480,403.1,485.7,398.1,490.8z
	 M304.7,487c-1.9-2.4-3.7-4.9-5.5-7.5c-2.3-3.1-4.6-6.3-7.1-9.5l2.2-1.7c2.5,3.3,4.9,6.5,7.2,9.6c1.8,2.5,3.7,5,5.5,7.5L304.7,487z
	 M278,454.5c-5.3-4.8-10.7-8.8-16.8-12.4l1.4-2.4c6.2,3.7,11.9,7.8,17.3,12.7L278,454.5z M419.3,453.8l-2.7-0.9
	c1.8-5.4,3.4-10.8,5-16.6l1-3.7l2.7,0.8l-1.1,3.7C422.7,442.9,421.1,448.3,419.3,453.8z M242.2,433.2c-6.7-2.5-13.6-4.6-20.1-6.5
	l0.8-2.7c6.5,1.9,13.5,4,20.3,6.6L242.2,433.2z M201.8,420.5c-7.5-2.5-13.8-5.1-19.8-8.1l1.3-2.5c5.9,2.9,12.1,5.4,19.5,8
	L201.8,420.5z M431.8,413.3l-2.7-1c2.6-7.1,5.5-13.5,8.8-19.5l2.5,1.4C437.2,400,434.4,406.3,431.8,413.3z M163.5,401.5
	c-5.5-3.8-11.1-8-17-13l1.8-2.2c5.8,4.9,11.3,9.1,16.8,12.8L163.5,401.5z M9.5,381.8l-2.4-1.5c0.2-0.3,5.1-8.1,13.3-17l2.1,1.9
	C14.4,373.9,9.5,381.7,9.5,381.8z M451.9,376.6l-2.3-1.7c4.2-5.6,9-11,14.1-16.1l2,2C460.8,365.8,456.1,371.1,451.9,376.6z
	 M130.6,374.5c-5.4-4.9-10.7-9.5-16-13.7l1.7-2.2c5.4,4.2,10.7,9,16.2,13.9L130.6,374.5z M38.1,351.4l-1.6-2.3
	c6.6-4.6,13.3-7.6,19.7-9l0.6,2.8C50.7,344.2,44.4,347,38.1,351.4z M97,349.4c-6.4-3.1-12.8-5.2-19.7-6.3l0.4-2.8
	c7.2,1.2,13.9,3.3,20.5,6.6L97,349.4z M481.5,346.7l-1.8-2.2c5.5-4.3,11.3-8.5,17.4-12.3l1.5,2.4
	C492.7,338.4,486.9,342.5,481.5,346.7z M517.1,324.2l-1.3-2.5c6.5-3.3,13.1-6.1,19.6-8.6l1,2.7C529.9,318.2,523.4,321,517.1,324.2z
	 M556.5,309.4l-0.7-2.7c6.7-1.8,13.1-3.2,20.7-4.9l0.6,2.8C569.5,306.2,563.1,307.7,556.5,309.4z M597.8,300l-0.7-2.7
	c7.7-1.8,14.2-3.6,20.4-5.5l0.9,2.7C612.1,296.4,605.6,298.1,597.8,300z M638.4,287.2l-1.1-2.6c6.3-2.6,12.7-5.6,19.1-8.9l1.3,2.5
	C651.3,281.5,644.8,284.5,638.4,287.2z M676,267l-1.6-2.3c5-3.5,10.1-7.4,16.7-12.9l1.8,2.2C686.3,259.5,681.1,263.5,676,267z
	 M976.9,252.2c-5.1,0-9.9-0.7-14.7-2.1l0.8-2.7c6,1.7,12,2.3,18.7,1.7c0.6,0,1.1-0.1,1.7-0.2l0.4,2.8c-0.6,0.1-1.2,0.2-1.9,0.2
	C980.2,252.1,978.5,252.2,976.9,252.2z M1003.4,242.6l-1.8-2.2c4.8-3.8,9.6-8.9,14.3-15.1l2.3,1.7
	C1013.5,233.3,1008.5,238.6,1003.4,242.6z M942.8,240.5c-5-3.5-10.1-7.7-16.4-13.8l2-2.1c6.3,5.9,11.2,10.1,16.1,13.5L942.8,240.5z
	 M709.2,240.3l-1.8-2.2c5-4.2,10.5-8.8,16.4-13.5l1.8,2.2C719.7,231.6,714.2,236.1,709.2,240.3z M742.5,214.1l-1.7-2.3
	c5.8-4.1,11.7-8.2,17.7-11.9l1.5,2.4C754.1,206.1,748.2,210,742.5,214.1z M911.3,211.9c-4.4-4.3-9.8-9.4-15.6-14.2l1.8-2.2
	c5.9,4.9,11.3,10,15.8,14.4L911.3,211.9z M1029.7,208.7l-2.5-1.3c4.6-8.6,7.2-15.2,7.2-15.3l2.6,1
	C1037,193.4,1034.4,200,1029.7,208.7z M778.3,191.8l-1.3-2.5c6.5-3.3,13.1-6.1,19.6-8.5l1,2.7C791.1,185.8,784.6,188.6,778.3,191.8z
	 M878.5,185.6c-1.7-1-3.5-2-5.3-2.8c-4.3-2.1-8.9-3.8-13.9-5l0.7-2.7c5.2,1.2,10.1,3,14.5,5.2c1.9,0.9,3.7,1.9,5.4,2.9L878.5,185.6z
	 M817.8,177.8l-0.6-2.8c7.3-1.4,14.5-2.2,21.3-2.3l0,2.8C831.9,175.6,824.9,176.4,817.8,177.8z"/>
</svg>
