<svg id="Layer_1" data-name="Layer 1" xmlns="http://www.w3.org/2000/svg" xmlns:xlink="http://www.w3.org/1999/xlink" viewBox="0 0 512 512"><defs><style>.cls-1{fill:none;}.cls-2{fill:#7cc470;}.cls-3{fill:#f9f5b7;}.cls-4{clip-path:url(#clip-path);}.cls-5{fill:#ee4498;}.cls-6{fill:#605ba8;}</style><clipPath id="clip-path"><path class="cls-1" d="M77.54,74.46V259.08a178.46,178.46,0,1,0,356.92,0V74.46Z"/></clipPath></defs><title>Artboard 1</title><circle class="cls-2" cx="256" cy="259.08" r="178.46"/><path class="cls-3" d="M98.79,343.58a178.5,178.5,0,0,0,314.42,0Z"/><g class="cls-4"><path class="cls-5" d="M296,148.73c35.84,0,35.32,194.86,80,194.86H216C260.67,343.58,260.16,148.73,296,148.73Z"/><path class="cls-5" d="M136,105.58c35.84,0,35.32,238,80,238h-160C100.72,343.58,100.2,105.58,136,105.58Z"/><path class="cls-6" d="M376,265.91c35.84,0,35.31,77.67,80,77.67H296C340.65,343.58,340.13,265.91,376,265.91Z"/><path class="cls-5" d="M344,295.5c7.76,27.64,17.48,48.09,31.95,48.09H296C321.9,343.58,332.61,317.45,344,295.5Z"/><path class="cls-6" d="M216,196.87c35.84,0,35.32,146.71,80,146.71H136C180.69,343.58,180.17,196.87,216,196.87Z"/><path class="cls-5" d="M180.25,266.84c8.39,42.5,18.83,76.74,35.76,76.74H136C159.05,343.58,170.07,304.62,180.25,266.84Z"/><path class="cls-5" d="M253.52,273.3c9.72,35.63,20.76,70.28,42.46,70.28H216C234.14,343.58,244.83,311.46,253.52,273.3Z"/></g></svg>